<svg width="216" height="49" viewBox="0 0 216 49" fill="none" xmlns="http://www.w3.org/2000/svg">
<path d="M66.5132 29.3514C66.5132 28.7167 66.4155 28.147 66.2202 27.6425C66.0412 27.1216 65.6994 26.6496 65.1948 26.2264C64.6903 25.787 63.9823 25.3557 63.0708 24.9325C62.1593 24.5093 60.9793 24.0699 59.5308 23.6141C57.9194 23.0933 56.3895 22.5074 54.9409 21.8563C53.5086 21.2053 52.2391 20.4484 51.1323 19.5858C50.0418 18.7069 49.1792 17.6897 48.5444 16.5341C47.9259 15.3785 47.6167 14.0357 47.6167 12.5057C47.6167 11.0246 47.9422 9.68184 48.5933 8.47742C49.2443 7.25671 50.1558 6.21505 51.3276 5.35242C52.4995 4.47351 53.883 3.79806 55.478 3.32605C57.0894 2.85404 58.8553 2.61804 60.7759 2.61804C63.3963 2.61804 65.6831 3.09005 67.6362 4.03406C69.5894 4.97807 71.103 6.27201 72.1772 7.91589C73.2677 9.55977 73.813 11.4397 73.813 13.5555H66.5376C66.5376 12.5139 66.3179 11.6024 65.8784 10.8212C65.4552 10.0236 64.8042 9.39701 63.9253 8.94128C63.0627 8.48556 61.9722 8.25769 60.6538 8.25769C59.3843 8.25769 58.3263 8.453 57.48 8.84363C56.6336 9.21798 55.9989 9.73067 55.5757 10.3817C55.1525 11.0165 54.9409 11.7326 54.9409 12.5302C54.9409 13.1324 55.0874 13.6776 55.3804 14.1659C55.6896 14.6542 56.1453 15.1099 56.7476 15.5331C57.3498 15.9563 58.0903 16.355 58.9692 16.7294C59.8481 17.1037 60.8654 17.4699 62.021 17.828C63.9578 18.4139 65.6587 19.0731 67.1235 19.8055C68.6047 20.538 69.8416 21.3599 70.8345 22.2714C71.8273 23.1828 72.576 24.2163 73.0806 25.3719C73.5851 26.5275 73.8374 27.8378 73.8374 29.3026C73.8374 30.8488 73.5363 32.2323 72.9341 33.453C72.3319 34.6737 71.4611 35.7072 70.3218 36.5536C69.1825 37.3999 67.8234 38.0428 66.2446 38.4823C64.6659 38.9218 62.8999 39.1415 60.9468 39.1415C59.189 39.1415 57.4556 38.9136 55.7466 38.4579C54.0376 37.9859 52.4832 37.2779 51.0835 36.3339C49.7 35.3899 48.5933 34.1854 47.7632 32.7206C46.9331 31.2557 46.5181 29.5223 46.5181 27.5204H53.8667C53.8667 28.6272 54.0376 29.563 54.3794 30.328C54.7212 31.093 55.2013 31.7115 55.8198 32.1835C56.4546 32.6555 57.2033 32.9973 58.0659 33.2089C58.9448 33.4205 59.9051 33.5262 60.9468 33.5262C62.2163 33.5262 63.258 33.3472 64.0718 32.9891C64.9019 32.6311 65.5122 32.1346 65.9028 31.4999C66.3097 30.8651 66.5132 30.149 66.5132 29.3514Z" fill="white"/>
<path d="M92.6362 32.6962V20.9286C92.6362 20.0822 92.4979 19.358 92.2212 18.7557C91.9445 18.1372 91.5132 17.6571 90.9272 17.3153C90.3576 16.9735 89.617 16.8026 88.7056 16.8026C87.9243 16.8026 87.2489 16.941 86.6792 17.2177C86.1095 17.4781 85.6701 17.8606 85.3608 18.3651C85.0516 18.8534 84.897 19.4312 84.897 20.0985H77.8657C77.8657 18.9755 78.1261 17.9094 78.647 16.9003C79.1678 15.8912 79.9246 15.0041 80.9175 14.2391C81.9103 13.4579 83.0903 12.8475 84.4575 12.4081C85.841 11.9686 87.3872 11.7489 89.0962 11.7489C91.147 11.7489 92.9699 12.0907 94.5649 12.7743C96.16 13.4579 97.4132 14.4833 98.3247 15.8505C99.2524 17.2177 99.7163 18.9266 99.7163 20.9774V32.2811C99.7163 33.7297 99.8058 34.9178 99.9849 35.8456C100.164 36.757 100.424 37.5546 100.766 38.2382V38.6532H93.6616C93.3198 37.9371 93.0594 37.0419 92.8804 35.9677C92.7176 34.8772 92.6362 33.7867 92.6362 32.6962ZM93.564 22.5643L93.6128 26.5438H89.6821C88.7544 26.5438 87.9487 26.6496 87.2651 26.8612C86.5815 27.0728 86.02 27.3739 85.5806 27.7645C85.1411 28.1389 84.8156 28.5783 84.604 29.0829C84.4087 29.5874 84.311 30.1408 84.311 30.743C84.311 31.3453 84.4494 31.8905 84.7261 32.3788C85.0028 32.8508 85.4015 33.2251 85.9224 33.5018C86.4432 33.7622 87.0535 33.8925 87.7534 33.8925C88.8114 33.8925 89.731 33.6809 90.5122 33.2577C91.2935 32.8345 91.8957 32.3137 92.3188 31.6952C92.7583 31.0767 92.9862 30.4908 93.0024 29.9374L94.8579 32.9159C94.5975 33.5832 94.2394 34.2749 93.7837 34.9911C93.3442 35.7072 92.7827 36.3827 92.0991 37.0175C91.4155 37.6359 90.5936 38.1486 89.6333 38.5555C88.673 38.9462 87.5337 39.1415 86.2153 39.1415C84.5389 39.1415 83.0171 38.8078 81.6499 38.1405C80.299 37.4569 79.2248 36.521 78.4272 35.3329C77.646 34.1285 77.2554 32.7613 77.2554 31.2313C77.2554 29.8479 77.5158 28.619 78.0366 27.5448C78.5575 26.4706 79.3224 25.5673 80.3315 24.8348C81.3569 24.0861 82.6346 23.5246 84.1646 23.1503C85.6945 22.7596 87.4686 22.5643 89.4868 22.5643H93.564Z" fill="white"/>
<path d="M112.167 17.3153V48.8094H105.136V12.2372H111.655L112.167 17.3153ZM128.891 25.1522V25.6649C128.891 27.5855 128.663 29.3677 128.208 31.0116C127.768 32.6555 127.117 34.0878 126.254 35.3085C125.392 36.5129 124.318 37.4569 123.032 38.1405C121.762 38.8078 120.297 39.1415 118.637 39.1415C117.026 39.1415 115.626 38.816 114.438 38.1649C113.25 37.5139 112.249 36.6024 111.435 35.4305C110.638 34.2424 109.995 32.8671 109.506 31.3046C109.018 29.7421 108.644 28.0656 108.383 26.2753V24.9325C108.644 23.0119 109.018 21.2541 109.506 19.6591C109.995 18.0477 110.638 16.6561 111.435 15.4843C112.249 14.2961 113.242 13.3765 114.414 12.7255C115.602 12.0744 116.993 11.7489 118.588 11.7489C120.265 11.7489 121.738 12.0663 123.007 12.701C124.293 13.3358 125.367 14.2473 126.23 15.4354C127.109 16.6236 127.768 18.0396 128.208 19.6835C128.663 21.3274 128.891 23.1503 128.891 25.1522ZM121.835 25.6649V25.1522C121.835 24.0292 121.738 22.9956 121.542 22.0516C121.363 21.0913 121.07 20.2531 120.664 19.537C120.273 18.8208 119.752 18.2675 119.101 17.8768C118.466 17.4699 117.693 17.2665 116.782 17.2665C115.821 17.2665 115 17.4211 114.316 17.7303C113.649 18.0396 113.103 18.4872 112.68 19.0731C112.257 19.6591 111.94 20.3589 111.728 21.1727C111.516 21.9865 111.386 22.9061 111.337 23.9315V27.3251C111.419 28.5295 111.647 29.6119 112.021 30.5721C112.395 31.5162 112.973 32.2649 113.754 32.8182C114.536 33.3716 115.561 33.6483 116.831 33.6483C117.758 33.6483 118.54 33.4449 119.174 33.038C119.809 32.6148 120.322 32.037 120.712 31.3046C121.119 30.5721 121.404 29.7258 121.567 28.7655C121.746 27.8052 121.835 26.7717 121.835 25.6649Z" fill="white"/>
<path d="M140.122 1.1532V38.6532H133.09V1.1532H140.122ZM139.121 24.5175H137.192C137.208 22.6783 137.452 20.9856 137.924 19.4393C138.396 17.8768 139.072 16.5259 139.951 15.3866C140.83 14.231 141.879 13.3358 143.1 12.701C144.337 12.0663 145.704 11.7489 147.202 11.7489C148.504 11.7489 149.684 11.9361 150.742 12.3104C151.816 12.6685 152.736 13.2544 153.5 14.0682C154.282 14.8658 154.884 15.9156 155.307 17.2177C155.73 18.5197 155.942 20.0985 155.942 21.954V38.6532H148.862V21.9052C148.862 20.7333 148.691 19.8137 148.349 19.1464C148.024 18.4628 147.543 17.9826 146.909 17.7059C146.29 17.413 145.525 17.2665 144.614 17.2665C143.605 17.2665 142.742 17.4537 142.026 17.828C141.326 18.2024 140.764 18.7232 140.341 19.3905C139.918 20.0415 139.609 20.8065 139.414 21.6854C139.218 22.5643 139.121 23.5083 139.121 24.5175Z" fill="white"/>
<path d="M168.71 12.2372V38.6532H161.655V12.2372H168.71ZM161.215 5.35242C161.215 4.32703 161.573 3.48067 162.29 2.81335C163.006 2.14604 163.966 1.81238 165.17 1.81238C166.359 1.81238 167.311 2.14604 168.027 2.81335C168.759 3.48067 169.125 4.32703 169.125 5.35242C169.125 6.37781 168.759 7.22416 168.027 7.89148C167.311 8.5588 166.359 8.89246 165.17 8.89246C163.966 8.89246 163.006 8.5588 162.29 7.89148C161.573 7.22416 161.215 6.37781 161.215 5.35242Z" fill="white"/>
<path d="M181.552 17.9989V38.6532H174.521V12.2372H181.137L181.552 17.9989ZM189.511 12.0663L189.389 18.5848C189.047 18.536 188.632 18.4953 188.144 18.4628C187.672 18.4139 187.241 18.3895 186.85 18.3895C185.857 18.3895 184.995 18.5197 184.262 18.7802C183.546 19.0243 182.944 19.3905 182.456 19.8788C181.984 20.3671 181.625 20.9611 181.381 21.661C181.153 22.3609 181.023 23.1584 180.991 24.0536L179.575 23.6141C179.575 21.9052 179.746 20.3345 180.087 18.9022C180.429 17.4537 180.926 16.1923 181.577 15.118C182.244 14.0438 183.058 13.2137 184.018 12.6278C184.978 12.0419 186.077 11.7489 187.314 11.7489C187.705 11.7489 188.103 11.7815 188.51 11.8466C188.917 11.8954 189.251 11.9686 189.511 12.0663Z" fill="white"/>
<path d="M204.501 39.1415C202.451 39.1415 200.611 38.816 198.984 38.1649C197.356 37.4976 195.973 36.578 194.833 35.4061C193.71 34.2343 192.848 32.8752 192.246 31.329C191.643 29.7665 191.342 28.1063 191.342 26.3485V25.3719C191.342 23.37 191.627 21.5389 192.197 19.8788C192.766 18.2186 193.58 16.7782 194.638 15.5575C195.712 14.3368 197.014 13.4009 198.544 12.7499C200.074 12.0826 201.8 11.7489 203.72 11.7489C205.592 11.7489 207.252 12.0581 208.701 12.6766C210.149 13.2951 211.362 14.174 212.338 15.3134C213.331 16.4527 214.08 17.8199 214.584 19.4149C215.089 20.9937 215.341 22.7515 215.341 24.6884V27.618H194.345V22.9305H208.432V22.3934C208.432 21.4169 208.253 20.5461 207.895 19.7811C207.553 18.9999 207.032 18.3814 206.333 17.9257C205.633 17.4699 204.737 17.2421 203.647 17.2421C202.719 17.2421 201.922 17.4455 201.254 17.8524C200.587 18.2593 200.042 18.829 199.619 19.5614C199.212 20.2938 198.903 21.1565 198.691 22.1493C198.496 23.1259 198.398 24.2001 198.398 25.3719V26.3485C198.398 27.4065 198.544 28.383 198.837 29.2782C199.147 30.1734 199.578 30.9465 200.131 31.5975C200.701 32.2486 201.385 32.7531 202.182 33.1112C202.996 33.4693 203.916 33.6483 204.941 33.6483C206.21 33.6483 207.39 33.4042 208.481 32.9159C209.588 32.4113 210.54 31.6545 211.337 30.6454L214.755 34.3563C214.202 35.1538 213.445 35.9188 212.485 36.6512C211.541 37.3837 210.402 37.9859 209.067 38.4579C207.732 38.9136 206.21 39.1415 204.501 39.1415Z" fill="white"/>
<path d="M33.2123 39.7097H28.2057C27.763 39.7097 27.3386 39.5353 27.0256 39.2249C26.7126 38.9146 26.5368 38.4936 26.5368 38.0547V24.8143C26.5368 24.3754 26.361 23.9544 26.048 23.644C25.735 23.3337 25.3105 23.1593 24.8679 23.1593H14.8547C14.4121 23.1593 13.9876 23.3337 13.6746 23.644C13.3617 23.9544 13.1858 24.3754 13.1858 24.8143V38.0547C13.1858 38.4936 13.01 38.9146 12.697 39.2249C12.384 39.5353 11.9596 39.7097 11.517 39.7097H6.51034C5.62511 39.7097 4.77615 39.361 4.1502 38.7402C3.52425 38.1194 3.1726 37.2775 3.1726 36.3996V23.1427C2.53627 23.0897 1.92665 22.8653 1.40958 22.4937C0.892512 22.122 0.487649 21.6174 0.238722 21.0342C-0.00597069 20.4447 -0.0642244 19.7954 0.0716834 19.1723C0.207591 18.5493 0.531241 17.9819 0.999727 17.5454L17.2612 1.08437C17.6 0.741078 18.0045 0.46833 18.451 0.282123C18.8975 0.0959162 19.3769 0 19.8613 0C20.3457 0 20.8252 0.0959162 21.2716 0.282123C21.7181 0.46833 22.1226 0.741078 22.4614 1.08437L38.7496 17.5719C39.2081 18.0093 39.5234 18.5734 39.6543 19.1909C39.7853 19.8084 39.7259 20.4507 39.4839 21.0342C39.235 21.6174 38.8301 22.122 38.313 22.4937C37.796 22.8653 37.1863 23.0897 36.55 23.1427V36.3996C36.55 37.2775 36.1984 38.1194 35.5724 38.7402C34.9465 39.361 34.0975 39.7097 33.2123 39.7097Z" fill="white"/>
</svg>
